<svg xmlns="http://www.w3.org/2000/svg" viewBox="0 0 400 400" width="400" height="400"><title>buildea icon</title><defs><clipPath id="rc"><rect x="0" y="0" width="400" height="400" rx="80" ry="80"></rect></clipPath></defs><g clip-path="url(#rc)"><rect x="0" y="0" width="400" height="400" fill="#FFFFFF"></rect><g transform="translate(64,73.9875) scale(0.425)"><rect x="10" y="0" width="183" height="140" fill="#FFD400"></rect><path d="M226,0L538,0L538,2L550,2L550,4L558,4L558,6L566,6L566,8L572,8L572,10L578,10L578,12L582,12L582,14L588,14L588,16L592,16L592,18L596,18L596,20L598,20L598,22L600,22L600,24L604,24L604,26L606,26L606,28L608,28L608,30L610,30L610,32L612,32L612,34L616,34L616,36L618,36L618,38L620,38L620,42L622,42L622,44L624,44L624,48L626,48L626,50L628,50L628,54L630,54L630,58L632,58L632,62L634,62L634,70L636,70L636,76L638,76L638,192L636,192L636,198L634,198L634,206L632,206L632,212L630,212L630,214L628,214L628,216L626,216L626,218L624,218L624,220L622,220L622,222L620,222L620,226L618,226L618,228L616,228L616,230L610,230L610,232L606,232L606,234L600,234L600,236L594,236L594,238L588,238L588,240L548,240L548,242L458,242L458,154L456,154L456,150L454,150L454,148L450,148L450,146L446,146L446,144L440,144L440,142L226,142ZM10,158L194,158L194,368L80,368L80,370L10,370ZM226,258L564,258L564,260L574,260L574,262L580,262L580,264L586,264L586,266L592,266L592,268L598,268L598,270L602,270L602,272L606,272L606,274L608,274L608,276L610,276L610,278L612,278L612,280L614,280L614,282L616,282L616,284L618,284L618,286L620,286L620,288L622,288L622,290L624,290L624,292L626,292L626,294L628,294L628,298L630,298L630,300L632,300L632,304L634,304L634,306L636,306L636,534L634,534L634,538L632,538L632,540L630,540L630,544L628,544L628,548L626,548L626,550L624,550L624,554L622,554L622,556L620,556L620,558L618,558L618,562L616,562L616,564L614,564L614,566L612,566L612,568L608,568L608,570L606,570L606,572L602,572L602,574L598,574L598,576L596,576L596,578L592,578L592,580L588,580L588,582L584,582L584,584L576,584L576,586L570,586L570,588L564,588L564,590L554,590L554,592L542,592L542,594L226,594L226,480L442,480L442,478L446,478L446,476L450,476L450,474L454,474L454,472L456,472L456,470L458,470L458,368L226,368ZM10,390L194,390L194,476L10,476ZM10,494L194,494L194,594L42,594L42,592L36,592L36,590L30,590L30,588L26,588L26,586L22,586L22,584L20,584L20,582L18,582L18,580L16,580L16,578L14,578L14,574L12,574L12,572L10,572Z" fill="#0A0A0A"></path></g></g></svg>